#!OML:ASF H:\Pregnant\Project 1\Capture day 1\Session 1\femalepreg.ASF
:FULLY-SPECIFIED
:DEGREES
712
root 12.2789 15.2952 -3.12276 32.5951 -68.5908 -15.3501
lowerback -14.8744 -3.13435 9.30228
upperback -4.21874 -5.81114 2.16506
thorax 3.12545 -2.95669 -3.90382
lowerneck -1.4953 19.3417 25.8556
upperneck 17.135 28.2172 -17.6791
head 12.2116 13.6756 -5.78177
rclavicle -2.17219e-014 4.57205e-015
rhumerus 2.2281 55.8707 15.3714
rradius 125.927
rwrist -17.1306
rhand 10.1589 -7.81454
rfingers 7.12502
rthumb 35.277 -34.3055
lclavicle -2.17219e-014 4.57205e-015
lhumerus -38.7608 -26.2463 86.4976
lradius 41.161
lwrist 62.5932
lhand -31.9768 10.4381
lfingers 7.12502
lthumb -5.22637 40.3537
rfemur -21.9332 16.7896 10.6187
rtibia 30.2747
rfoot -23.606 -12.8424
rtoes -22.886
lfemur -27.4874 -1.26072 6.25925
ltibia 9.34895
lfoot -5.70769 55.3431
ltoes 12.0067
713
root 12.2749 15.293 -3.14902 32.4563 -69.2898 -15.2476
lowerback -14.9489 -3.29946 9.38658
upperback -4.21244 -6.05794 2.25631
thorax 3.14184 -3.07855 -3.8961
lowerneck -1.10209 19.4764 26.1402
upperneck 17.4488 28.539 -17.7273
head 12.3975 13.8498 -5.77594
rclavicle -5.67064e-014 9.14409e-015
rhumerus 1.73946 52.9472 15.6684
rradius 126.514
rwrist -18.286
rhand 11.9338 -7.88604
rfingers 7.12502
rthumb 36.9581 -33.9613
lclavicle -5.67064e-014 9.14409e-015
lhumerus -38.8385 -27.0107 87.1875
lradius 41.0262
lwrist 62.8045
lhand -32.0878 10.4049
lfingers 7.12502
lthumb -5.33346 40.3177
rfemur -22.3565 17.0464 10.3001
rtibia 30.7479
rfoot -23.9767 -12.5774
rtoes -22.4814
lfemur -26.2569 -0.692912 5.62494
ltibia 8.1921
lfoot -13.1878 54.3956
ltoes 21.8996
714
root 12.2711 15.2901 -3.1744 32.1955 -69.968 -15.0085
lowerback -15.018 -3.4747 9.39914
upperback -4.21247 -6.30587 2.34142
thorax 3.15582 -3.20124 -3.85523
lowerneck -0.736781 19.5911 26.4065
upperneck 17.732 28.8241 -17.7736
head 12.5669 14.0058 -5.77452
rclavicle -4.10925e-014 -2.127e-014
rhumerus 1.20247 49.9426 15.8811
rradius 127.065
rwrist -19.4765
rhand 13.623 -7.98596
rfingers 7.12502
rthumb 38.554 -33.6323
lclavicle -4.10925e-014 -2.127e-014
lhumerus -38.92 -27.8778 87.8906
lradius 40.984
lwrist 63.0117
lhand -32.1693 10.3973
lfingers 7.12502
lthumb -5.41224 40.3081
rfemur -22.7929 17.2825 9.94702
rtibia 31.2591
rfoot -24.3603 -12.351
rtoes -22.0755
lfemur -24.9384 -0.104663 5.06652
ltibia 6.79897
lfoot -20.0291 52.8252
ltoes 30.6205
715
root 12.2678 15.2871 -3.19902 31.8344 -70.6251 -14.648
lowerback -15.086 -3.64916 9.36158
upperback -4.2244 -6.54338 2.40925
thorax 3.16212 -3.31965 -3.80319
lowerneck -0.401575 19.6817 26.6657
upperneck 17.9935 29.063 -17.8089
head 12.7208 14.1405 -5.7781
rclavicle -4.61056e-014 -3.20043e-014
rhumerus 0.609341 46.8748 15.9999
rradius 127.579
rwrist -20.6808
rhand 15.2436 -8.13271
rfingers 7.12502
rthumb 40.0809 -33.3343
lclavicle -4.61056e-014 -3.20043e-014
lhumerus -39.0151 -28.8571 88.5893
lradius 41.0427
lwrist 63.2088
lhand -32.19 10.4124
lfingers 7.12502
lthumb -5.43223 40.3228
rfemur -23.2523 17.5029 9.5637
rtibia 31.8008
rfoot -24.7419 -12.1582
rtoes -21.6822
lfemur -23.4942 0.531169 4.63715
ltibia 5.08375
lfoot -25.4837 50.9677
ltoes 37.408
716
root 12.2651 15.2843 -3.2227 31.4045 -71.2572 -14.1956
lowerback -15.1586 -3.82718 9.28653
upperback -4.24787 -6.77966 2.47453
thorax 3.16365 -3.43819 -3.73336
lowerneck -0.0922178 19.7547 26.8983
upperneck 18.2317 29.2678 -17.8361
head 12.8572 14.2581 -5.78317
rclavicle -3.71479e-014 3.04141e-014
rhumerus 0.0328012 43.73 16.0856
rradius 128.054
rwrist -21.9031
rhand 16.8106 -8.37304
rfingers 7.12502
rthumb 41.5531 -33.1111
lclavicle -3.71479e-014 3.04141e-014
lhumerus -39.1177 -29.9061 89.2752
lradius 41.2061
lwrist 63.3812
lhand -32.1248 10.4587
lfingers 7.12502
lthumb -5.36919 40.3707
rfemur -23.7348 17.711 9.16031
rtibia 32.3566
rfoot -25.1058 -11.9918
rtoes -21.3104
lfemur -21.7114 1.25973 4.45454
ltibia 2.64971
lfoot -29.325 49.3283
ltoes 42.3721
717
root 12.2625 15.2822 -3.24432 30.9398 -71.8698 -13.6987
lowerback -15.2291 -4.00024 9.19594
upperback -4.28192 -7.00616 2.53858
thorax 3.15676 -3.5528 -3.65452
lowerneck 0.191713 19.8085 27.0932
upperneck 18.4556 29.4351 -17.847
head 12.9746 14.3569 -5.78698
rclavicle 6.94752e-014 -1.19271e-015
rhumerus -0.522487 40.512 16.1383
rradius 128.487
rwrist -23.1322
rhand 18.3441 -8.66852
rfingers 7.12502
rthumb 42.9895 -32.9182
lclavicle 6.94752e-014 -1.19271e-015
lhumerus -39.2199 -30.9704 89.9362
lradius 41.4574
lwrist 63.4872
lhand -31.9431 10.5308
lfingers 7.12502
lthumb -5.19381 40.4472
rfemur -24.2202 17.9097 8.75129
rtibia 32.903
rfoot -25.4356 -11.8409
rtoes -21.0016
lfemur -19.8373 2.05515 4.49194
ltibia 1.03368e-014
lfoot -31.9674 48.0048
ltoes 45.8806
718
root 12.2602 15.2807 -3.26359 30.5 -72.4584 -13.2194
lowerback -15.2971 -4.17431 9.11176
upperback -4.3276 -7.23504 2.61619
thorax 3.13799 -3.66975 -3.56469
lowerneck 0.455896 19.8572 27.2489
upperneck 18.6825 29.5888 -17.8404
head 13.0841 14.4473 -5.78273
rclavicle 3.50358e-014 -3.97569e-016
rhumerus -0.999467 37.2036 16.1894
rradius 128.884
rwrist -24.4037
rhand 19.8844 -9.10638
rfingers 7.12502
rthumb 44.4273 -32.828
lclavicle 3.50358e-014 -3.97569e-016
lhumerus -39.3185 -32.0033 90.5641
lradius 41.7941
lwrist 63.5233
lhand -31.6461 10.6205
lfingers 7.12502
lthumb -4.90705 40.5437
rfemur -24.7011 18.1002 8.35583
rtibia 33.4166
rfoot -25.7188 -11.6938
rtoes -20.7516
lfemur -19.4583 2.63803 4.08523
ltibia -5.88403e-014
lfoot -34.3621 45.9706
ltoes 48.2805
719
root 12.2582 15.2802 -3.28046 30.1397 -73.0241 -12.8204
lowerback -15.3449 -4.36259 9.03842
upperback -4.38425 -7.48279 2.71508
thorax 3.09713 -3.79765 -3.4587
lowerneck 0.718318 19.9081 27.4107
upperneck 18.9049 29.7475 -17.8422
head 13.1973 14.5396 -5.78018
rclavicle 9.72057e-014 -3.22031e-014
rhumerus -1.36583 33.7936 16.2152
rradius 129.232
rwrist -25.6995
rhand 21.4136 -9.55151
rfingers 7.12502
rthumb 45.8496 -32.7084
lclavicle 9.72057e-014 -3.22031e-014
lhumerus -39.4017 -32.9379 91.1232
lradius 42.2
lwrist 63.4692
lhand -31.2177 10.6983
lfingers 7.12502
lthumb -4.49339 40.6306
rfemur -25.1613 18.2905 7.99419
rtibia 33.8754
rfoot -25.9416 -11.5583
rtoes -20.5948
lfemur -19.1146 3.21955 3.71534
ltibia -2.48481e-014
lfoot -35.7683 44.3564
ltoes 49.8532
720
root 12.2571 15.2806 -3.295 29.912 -73.5612 -12.5462
lowerback -15.3832 -4.55016 8.9928
upperback -4.45462 -7.73411 2.84154
thorax 3.03776 -3.92896 -3.33765
lowerneck 0.968288 19.956 27.5325
upperneck 19.1258 29.899 -17.8367
head 13.3027 14.6261 -5.77208
rclavicle -8.36883e-014 -2.18663e-014
rhumerus -1.64749 30.2835 16.2131
rradius 129.532
rwrist -27.011
rhand 22.8928 -9.95771
rfingers 7.12502
rthumb 47.2198 -32.5265
lclavicle -8.36883e-014 -2.18663e-014
lhumerus -39.4587 -33.7847 91.6344
lradius 42.6642
lwrist 63.3261
lhand -30.6726 10.7638
lfingers 7.12502
lthumb -3.96703 40.7067
rfemur -25.6042 18.4758 7.6758
rtibia 34.2655
rfoot -26.1058 -11.4247
rtoes -20.4928
lfemur -18.82 3.80382 3.39471
ltibia 5.48646e-014
lfoot -36.3814 43.2352
ltoes 50.7571
721
root 12.2566 15.2817 -3.30679 29.8478 -74.0735 -12.441
lowerback -15.3967 -4.72359 8.99841
upperback -4.53722 -7.97197 2.97696
thorax 2.94913 -4.05574 -3.22918
lowerneck 1.18898 19.9991 27.6424
upperneck 19.3673 30.0347 -17.8093
head 13.4119 14.7038 -5.75664
rclavicle -1.09754e-013 -4.77083e-015
rhumerus -1.89518 26.6975 16.1366
rradius 129.784
rwrist -28.3068
rhand 24.3161 -10.2521
rfingers 7.12502
rthumb 48.5326 -32.2126
lclavicle -1.09754e-013 -4.77083e-015
lhumerus -39.4978 -34.591 92.089
lradius 43.1829
lwrist 63.1206
lhand -30.0232 10.7863
lfingers 7.12502
lthumb -3.33982 40.7399
rfemur -26.0105 18.6611 7.41065
rtibia 34.5797
rfoot -26.2196 -11.2896
rtoes -20.4232
lfemur -18.5537 4.39298 3.13139
ltibia 7.81224e-014
lfoot -36.4363 42.5467
ltoes 51.1792
